<svg id="SvgjsSvg1176" width="256" height="256" xmlns="http://www.w3.org/2000/svg" version="1.1" xmlns:xlink="http://www.w3.org/1999/xlink" xmlns:svgjs="http://svgjs.com/svgjs"><defs id="SvgjsDefs1177"></defs><g id="SvgjsG1178"><svg xmlns="http://www.w3.org/2000/svg" enable-background="new 0 0 64 64" viewBox="0 0 64 64" width="256" height="256"><g id="Layer_1"><path fill="#d8d8d8" d="M18.8,30.5c0,1.5-0.6,3.1-1.5,4.3l2.5,4.3l15.6-9l-4-6.9L18.8,30.5z" class="colord1dce0 svgShape"></path><path fill="none" stroke="#000000" stroke-linecap="round" stroke-linejoin="round" stroke-miterlimit="10" stroke-width="2" d="M18.8,30.5c0,1.5-0.6,3.1-1.5,4.3l2.5,4.3l15.6-9l-4-6.9L18.8,30.5z" class="colorStroke3b4752 svgStroke"></path><polygon fill="#c5c5c5" points="19.8 39.1 8.1 53.2 3 44.3 12.8 36.3 14.7 36.5 17.3 34.8" class="colorefc19b svgShape"></polygon><polygon fill="none" stroke="#000000" stroke-linecap="round" stroke-linejoin="round" stroke-miterlimit="10" stroke-width="2" points="19.8 39.1 8.1 53.2 3 44.3 12.8 36.3 14.7 36.5 17.3 34.8" class="colorStroke3b4752 svgStroke"></polygon><polygon fill="#c5c5c5" points="54 18.3 35.9 31 33.4 26.7 52.5 15.7" class="colorefc19b svgShape"></polygon><polygon fill="none" stroke="#000000" stroke-linecap="round" stroke-linejoin="round" stroke-miterlimit="10" stroke-width="2" points="54 18.3 35.9 31 33.4 26.7 52.5 15.7" class="colorStroke3b4752 svgStroke"></polygon><line x1="53.1" x2="61" y1="16.7" y2="12.2" fill="none" stroke="#000000" stroke-linecap="round" stroke-linejoin="round" stroke-miterlimit="10" stroke-width="2" class="colorStroke3b4752 svgStroke"></line><line x1="59.7" x2="58.5" y1="12.9" y2="10.8" fill="none" stroke="#000000" stroke-linecap="round" stroke-linejoin="round" stroke-miterlimit="10" stroke-width="2" class="colorStroke3b4752 svgStroke"></line><rect width="18.6" height="3.1" x="31.4" y="19.1" fill="#d8d8d8" transform="rotate(-30 40.703 20.68)" class="colord1dce0 svgShape"></rect><rect width="18.6" height="3.1" x="31.4" y="19.1" fill="none" stroke="#000000" stroke-linecap="round" stroke-linejoin="round" stroke-miterlimit="10" stroke-width="2" transform="rotate(-30 40.703 20.68)" class="colorStroke3b4752 svgStroke"></rect><line x1="33.7" x2="24.7" y1="27.1" y2="32.3" fill="none" stroke="#000000" stroke-linecap="round" stroke-linejoin="round" stroke-miterlimit="10" stroke-width="2" class="colorStroke3b4752 svgStroke"></line><polygon fill="#8c8c8c" points="26.5 45 23 47 21.4 38.2 24.9 36.2" class="color6aa6af svgShape"></polygon><path fill="#8c8c8c" d="M44.5,41.3c-6.9-0.5-10.8-2.8-14-8.3l3.5-2c2.2,3.8,4.5,5.9,10.8,6.3L44.5,41.3z" class="color6aa6af svgShape"></path><polygon fill="none" stroke="#000000" stroke-linecap="round" stroke-linejoin="round" stroke-miterlimit="10" stroke-width="2" points="26.5 45 23 47 21.4 38.2 24.9 36.2" class="colorStroke3b4752 svgStroke"></polygon><polyline fill="none" stroke="#3b4752" stroke-linecap="round" stroke-linejoin="round" stroke-miterlimit="10" stroke-width="2" points="52.5 15.7 51.8 14.6 48 14.7"></polyline><path fill="none" stroke="#000000" stroke-linecap="round" stroke-linejoin="round" stroke-miterlimit="10" stroke-width="2" d="M44.5,41.3c-6.9-0.5-10.8-2.8-14-8.3l3.5-2c2.2,3.8,4.5,5.9,10.8,6.3L44.5,41.3z" class="colorStroke3b4752 svgStroke"></path><polyline fill="none" stroke="#3b4752" stroke-linecap="round" stroke-linejoin="round" stroke-miterlimit="10" stroke-width="2" points="25.5 39.3 28.4 37.6 28 34.5"></polyline></g></svg></g></svg>