<svg id="SvgjsSvg1040" width="256" height="256" xmlns="http://www.w3.org/2000/svg" version="1.1" xmlns:xlink="http://www.w3.org/1999/xlink" xmlns:svgjs="http://svgjs.com/svgjs"><defs id="SvgjsDefs1041"></defs><g id="SvgjsG1042"><svg xmlns="http://www.w3.org/2000/svg" viewBox="0 0 60 60" width="256" height="256"><g data-name="Outer Lines"><path d="M56 0H4a4 4 0 0 0-4 4v40a4 4 0 0 0 4 4h14v2.42l-6.5 3.712a1.029 1.029 0 0 0-.131.106 1.085 1.085 0 0 0-.1.08.988.988 0 0 0-.183.271c0 .009-.011.015-.015.024a1 1 0 0 0-.072.356c0 .011-.006.02-.006.031v3a2 2 0 0 0 2 2H47a2 2 0 0 0 2-2v-3c0-.011-.006-.02-.006-.031a1 1 0 0 0-.072-.356c0-.009-.012-.016-.016-.025a.98.98 0 0 0-.182-.27 1.085 1.085 0 0 0-.1-.08 1.029 1.029 0 0 0-.131-.106L42 50.42V48h14a4 4 0 0 0 4-4V4a4 4 0 0 0-4-4ZM4 2h52a2 2 0 0 1 2 2v34H2V4a2 2 0 0 1 2-2Zm9 56v-2h34v2Zm2.766-4 3.5-2h21.468l3.5 2ZM40 50H20v-2h20Zm16-4H4a2 2 0 0 1-2-2v-4h56v4a2 2 0 0 1-2 2Z" fill="#000000" class="color000 svgShape"></path><path d="M43.213 28.616A2.171 2.171 0 0 0 45.224 30h.014a2.024 2.024 0 0 0 1.908-1.275l1.05-2.552 2.529-1.027A2.024 2.024 0 0 0 52 23.224a2.169 2.169 0 0 0-1.384-2.01l-7.738-3.059a2.085 2.085 0 0 0-2.723 2.721zm-1.19-8.593a.08.08 0 0 1 .056-.023.177.177 0 0 1 .063.015l7.74 3.059c.038.015.091.043.109.207a.08.08 0 0 1-.02.012l-2.534 1.029a2.057 2.057 0 0 0-1.118 1.122l-1.027 2.529-.1.02a.173.173 0 0 1-.117-.111l-3.06-7.742c-.022-.054-.015-.088.008-.117zM13 19.816V23a1 1 0 0 0 2 0v-3.184a2.99 2.99 0 0 0 1.981-2.629L20 16.325v6.593l-.521 3.135A3 3 0 0 0 17 29a2.951 2.951 0 0 0 .3 1.285l-4.008 4.008a1 1 0 1 0 1.414 1.414l4.009-4.007A2.951 2.951 0 0 0 20 32a2.99 2.99 0 0 0 1.45-5.61l.314-1.888 4.272 2.14A2.837 2.837 0 0 0 28 29.816V35a1 1 0 0 0 2 0v-5.184a2.993 2.993 0 1 0-3.08-4.97L22 22.383v-5.659l3.053 1.748A3.058 3.058 0 0 0 25 19a3 3 0 0 0 6 0 2.967 2.967 0 0 0-.458-1.575l2.239-2.8a1 1 0 0 0-1.562-1.248l-2.24 2.8a2.89 2.89 0 0 0-2.928.56L22 14.42v-2.562a4 4 0 1 0-2 0v2.387l-3.564 1.018A2.993 2.993 0 1 0 13 19.816zM29 26a1 1 0 1 1-1 1 1 1 0 0 1 1-1zm-1-8a1 1 0 1 1-1 1 1 1 0 0 1 1-1zm-8 12a.994.994 0 0 1-.7-.285V29.7l-.012-.008A1 1 0 1 1 20 30zM19 8a2 2 0 1 1 2 2 2 2 0 0 1-2-2zm-5 8a1 1 0 1 1-1 1 1 1 0 0 1 1-1zm18 26h-4a1 1 0 0 0 0 2h4a1 1 0 0 0 0-2z" fill="#000000" class="color000 svgShape"></path></g></svg></g></svg>