<svg id="SvgjsSvg1057" width="256" height="256" xmlns="http://www.w3.org/2000/svg" version="1.1" xmlns:xlink="http://www.w3.org/1999/xlink" xmlns:svgjs="http://svgjs.com/svgjs"><defs id="SvgjsDefs1058"></defs><g id="SvgjsG1059"><svg xmlns="http://www.w3.org/2000/svg" viewBox="0 0 64 64" width="256" height="256"><g data-name="16"><path d="M35.92 53.36a1 1 0 0 0-1 1c0 1.12-1.29 2.07-2.81 2.07s-2.81-1-2.81-2.07a1 1 0 0 0-2 0c0 2.24 2.16 4.07 4.81 4.07s4.81-1.83 4.81-4.07a1 1 0 0 0-1-1Z" fill="#000000" class="color000 svgShape"></path><path d="M55.5 21.5a3.3 3.3 0 0 0-1.1.2c-1.7-2.55-5.42-6-10.37-5.09-.54-1.17-1.71-4.14-.9-6.37a3.73 3.73 0 0 1 2.31-2.57 3.5 3.5 0 1 0-.33-2.49 13.13 13.13 0 0 0-9.29.48 23.24 23.24 0 0 0-10.66 9.16 1 1 0 0 0 1.68 1.09 21.2 21.2 0 0 1 9.71-8.38 11.88 11.88 0 0 1 6.58-.82 6.65 6.65 0 0 0-1.88 2.84c-1 2.76.14 6 .83 7.61-.17.07-.34.13-.5.21a1 1 0 1 0 .84 1.81 7.83 7.83 0 0 1 1.36-.48 7.66 7.66 0 0 1 7.63 2.48 4 4 0 0 0-2.84 1 7.27 7.27 0 0 0-2.19 4.52H37a12.76 12.76 0 0 1 2.7-5.55 1 1 0 0 0-.07-1.41 1 1 0 0 0-1.42.07A14.79 14.79 0 0 0 35 26.73h-4.83c-.33-1.82-1.94-8.31-8.28-10-5.17-1.35-9.12 2.08-11 4.72A3.49 3.49 0 1 0 12 24v-.33c.63-.31 2.24-.92 3.28 0a5.22 5.22 0 0 1 1.54 3.19A2.67 2.67 0 0 0 15 29.41v3.91a2.67 2.67 0 0 0 1.37 2.32 13.65 13.65 0 0 0-.76 3.24 1 1 0 0 0 .87 1.12h.12a1 1 0 0 0 1-.88 11.1 11.1 0 0 1 .79-3.12h27.73c.76 2 .74 4.47.71 7.32v1.82a14.1 14.1 0 0 1-.7 4.38 8.31 8.31 0 0 0-5.91-2.31 8.89 8.89 0 0 0-3.47.7 4.75 4.75 0 0 0-4.62-3 4.78 4.78 0 0 0-4.56 2.84 9.07 9.07 0 0 0-3.06-.54 8.1 8.1 0 0 0-6.23 2.7 13.72 13.72 0 0 1-.86-4.77v-3.12a1 1 0 0 0-1-1 1 1 0 0 0-1 1v3.16a16.75 16.75 0 0 0 31.69 7.18.9.9 0 0 0 .27-.54 15.87 15.87 0 0 0 1.45-6.64v-1.8c0-2.89.06-5.64-.81-8a2.66 2.66 0 0 0 1-2v-3.97a2.67 2.67 0 0 0-.72-1.81.88.88 0 0 0 .06-.28 5.49 5.49 0 0 1 1.58-3.62 2.51 2.51 0 0 1 2.5-.34 3.49 3.49 0 1 0 3.06-1.86Zm-7-17A1.5 1.5 0 1 1 47 6a1.5 1.5 0 0 1 1.5-1.5Zm-40 21A1.5 1.5 0 1 1 10 24a1.5 1.5 0 0 1-1.5 1.5ZM47 29.41v3.91a.68.68 0 0 1-.68.68H17.68a.68.68 0 0 1-.68-.68v-3.91a.69.69 0 0 1 .68-.68h28.64a.69.69 0 0 1 .68.68Zm-33.24-8.23a7.66 7.66 0 0 1 7.63-2.48c4.79 1.25 6.32 6.18 6.74 8h-9.34a7.29 7.29 0 0 0-2.19-4.51 4 4 0 0 0-2.84-1.01Zm18.35 25.73c1.52 0 2.81 1 2.81 2.07s-1.29 2.07-2.81 2.07-2.81-.94-2.81-2.05 1.29-2.09 2.81-2.09Zm0 12.59a14.79 14.79 0 0 1-12.9-7.5 5.85 5.85 0 0 1 5.28-2.82 6.74 6.74 0 0 1 2.93.66 4.7 4.7 0 0 0 4.69 3.18 4.74 4.74 0 0 0 4.59-2.93 1 1 0 0 0 .18-.06 6.64 6.64 0 0 1 3.32-.85 6 6 0 0 1 5 2.39 14.74 14.74 0 0 1-13.09 7.93Zm23.39-33A1.5 1.5 0 1 1 57 25a1.5 1.5 0 0 1-1.5 1.5Z" fill="#000000" class="color000 svgShape"></path><path d="M40 39a1 1 0 0 0-1 1v1h-1a1 1 0 0 0 0 2h1v1a1 1 0 0 0 2 0v-1h1a1 1 0 0 0 0-2h-1v-1a1 1 0 0 0-1-1zm-16 0a1 1 0 0 0-1 1v1h-1a1 1 0 0 0 0 2h1v1a1 1 0 0 0 2 0v-1h1a1 1 0 0 0 0-2h-1v-1a1 1 0 0 0-1-1z" fill="#000000" class="color000 svgShape"></path></g></svg></g></svg>