<svg id="SvgjsSvg1047" width="256" height="256" xmlns="http://www.w3.org/2000/svg" version="1.1" xmlns:xlink="http://www.w3.org/1999/xlink" xmlns:svgjs="http://svgjs.com/svgjs"><defs id="SvgjsDefs1048"></defs><g id="SvgjsG1049"><svg xmlns="http://www.w3.org/2000/svg" enable-background="new 0 0 96 96" viewBox="0 0 96 96" width="256" height="256"><polygon fill="#ffffff" points="84.3 11.7 76 36.3 91.5 57.1 65.5 56.8 50.5 78 42.8 53.2 18 45.5 39.2 30.5 38.9 4.5 59.7 20" class="colorFFF svgShape"></polygon><path fill="#000000" d="M49.8,82.4l-8.6-27.7l-27.7-8.6l23.6-16.7l-0.4-29L60,17.8l27.4-9.3L78.2,36l17.3,23.2l-29-0.4L49.8,82.4z     M22.4,44.8l22,6.8l6.8,22l13.3-18.8l23,0.3L73.7,36.7l7.4-21.8l-21.8,7.4L40.9,8.5l0.3,23L22.4,44.8z" class="color292D34 svgShape"></path><polygon fill="#7c7c7c" points="48.3 47.7 33.3 43.1 46.1 34 45.9 18.3 58.5 27.7 73.3 22.7 68.3 37.5 77.7 50.1 62 49.9 52.9 62.7" class="color2DCB73 svgShape"></polygon><g><line x1="43.3" x2="1.9" y1="52.7" y2="94.1" fill="#FFF"></line><rect width="4" height="58.6" x="20.6" y="44.1" fill="#000000" transform="rotate(45.001 22.608 73.393)" class="color292D34 svgShape"></rect></g></svg></g></svg>