<svg id="SvgjsSvg1044" width="256" height="256" xmlns="http://www.w3.org/2000/svg" version="1.1" xmlns:xlink="http://www.w3.org/1999/xlink" xmlns:svgjs="http://svgjs.com/svgjs"><defs id="SvgjsDefs1045"></defs><g id="SvgjsG1046"><svg xmlns="http://www.w3.org/2000/svg" viewBox="0 0 64 64" width="256" height="256"><path fill="#231f20" d="M37.5 37.729h-2c-.827 0-1.5-.673-1.5-1.5a.5.5 0 0 0-1 0c0 .827-.673 1.5-1.5 1.5h-5a5.506 5.506 0 0 1-5.5-5.5c0-.827.673-1.5 1.5-1.5h2c.827 0 1.5.673 1.5 1.5a.5.5 0 0 0 1 0c0-.827.673-1.5 1.5-1.5h6c.827 0 1.5.673 1.5 1.5a.5.5 0 0 0 1 0c0-.827.673-1.5 1.5-1.5h3c.827 0 1.5.673 1.5 1.5 0 3.032-2.467 5.5-5.5 5.5zm-4-3c.827 0 1.5.673 1.5 1.5a.5.5 0 0 0 .5.5h2c2.481 0 4.5-2.019 4.5-4.5a.5.5 0 0 0-.5-.5h-3a.5.5 0 0 0-.5.5c0 .827-.673 1.5-1.5 1.5s-1.5-.673-1.5-1.5a.5.5 0 0 0-.5-.5h-6a.5.5 0 0 0-.5.5c0 .827-.673 1.5-1.5 1.5s-1.5-.673-1.5-1.5a.5.5 0 0 0-.5-.5h-2a.5.5 0 0 0-.5.5c0 2.481 2.019 4.5 4.5 4.5h5a.5.5 0 0 0 .5-.5c0-.828.673-1.5 1.5-1.5z" class="color231f20 svgShape"></path><path fill="#231f20" d="M49.5 39.729a.5.5 0 0 1-.5-.5v-15.5c0-9.374-7.626-17-17-17s-17 7.626-17 17v15.5a.5.5 0 0 1-1 0v-15.5c0-9.925 8.075-18 18-18s18 8.075 18 18v15.5a.5.5 0 0 1-.5.5z" class="color231f20 svgShape"></path><path fill="#231f20" d="M24.5 24.729c-1.93 0-3.5-1.57-3.5-3.5v-1a.5.5 0 0 1 .5-.5h6a.5.5 0 0 1 .5.5v1c0 1.929-1.57 3.5-3.5 3.5zm-2.5-4v.5c0 1.379 1.122 2.5 2.5 2.5s2.5-1.121 2.5-2.5v-.5h-5zm17.5 4c-1.93 0-3.5-1.57-3.5-3.5v-1a.5.5 0 0 1 .5-.5h6a.5.5 0 0 1 .5.5v1c0 1.929-1.57 3.5-3.5 3.5zm-2.5-4v.5c0 1.379 1.122 2.5 2.5 2.5s2.5-1.121 2.5-2.5v-.5h-5zm-5 37.542a13.896 13.896 0 0 1-9.78-4.001 2.473 2.473 0 0 0-2.786-.483 14.936 14.936 0 0 1-9.396 1.148 1.447 1.447 0 0 1-1.161-1.259 1.508 1.508 0 0 1 .858-1.564A7.53 7.53 0 0 0 14 45.354v-7.4a.5.5 0 0 1 1 0v7.4a8.535 8.535 0 0 1-4.833 7.661.514.514 0 0 0-.297.54.444.444 0 0 0 .368.4c2.972.606 6.055.22 8.767-1.07 1.301-.621 2.875-.35 3.916.671a12.9 12.9 0 0 0 9.08 3.716c3.412 0 6.637-1.319 9.08-3.716 1.042-1.021 2.617-1.292 3.916-.671a13.94 13.94 0 0 0 8.767 1.07c.295-.06.355-.3.368-.4a.515.515 0 0 0-.297-.54A8.535 8.535 0 0 1 49 45.354v-7.531a.5.5 0 0 1 1 0v7.531a7.53 7.53 0 0 0 4.265 6.759c.603.288.939.902.858 1.564a1.447 1.447 0 0 1-1.161 1.259 14.963 14.963 0 0 1-9.396-1.148 2.478 2.478 0 0 0-2.786.483c-2.632 2.58-6.105 4-9.78 4z" class="color231f20 svgShape"></path><path fill="#231f20" d="M32 58.271a14.043 14.043 0 0 1-12.125-7 .5.5 0 0 1 .866-.5c2.315 4.01 6.629 6.5 11.258 6.5s8.943-2.49 11.258-6.5a.5.5 0 1 1 .866.5 14.035 14.035 0 0 1-12.123 7z" class="color231f20 svgShape"></path></svg></g></svg>