<svg id="SvgjsSvg1032" width="256" height="256" xmlns="http://www.w3.org/2000/svg" version="1.1" xmlns:xlink="http://www.w3.org/1999/xlink" xmlns:svgjs="http://svgjs.com/svgjs"><defs id="SvgjsDefs1033"></defs><g id="SvgjsG1034"><svg xmlns="http://www.w3.org/2000/svg" viewBox="0 0 16 16" width="256" height="256"><path d="M10.597 9.903c-2.481 0-4.5-2.019-4.5-4.5s2.019-4.5 4.5-4.5 4.5 2.019 4.5 4.5-2.019 4.5-4.5 4.5zm0-8c-1.93 0-3.5 1.57-3.5 3.5s1.57 3.5 3.5 3.5 3.5-1.57 3.5-3.5-1.571-3.5-3.5-3.5z" fill="#000000" class="color000 svgShape"></path><path d="M6.677 9.823a.5.5 0 0 1-.354-.853l1-1a.5.5 0 0 1 .707.707l-1 1a.498.498 0 0 1-.353.146z" fill="#000000" class="color000 svgShape"></path><path d="M2.818 14.682c-.001 0-.001 0 0 0a1.49 1.49 0 0 1-1.061-.439c-.283-.282-.439-.659-.439-1.06s.156-.778.439-1.062l2.828-2.828a1.503 1.503 0 0 1 2.121 0 1.501 1.501 0 0 1 0 2.121l-2.828 2.828c-.282.283-.659.44-1.06.44zm2.828-4.828a.502.502 0 0 0-.354.146l-2.828 2.828a.497.497 0 0 0 0 .707c.095.095.22.146.353.146h.001a.5.5 0 0 0 .354-.146L6 10.707a.5.5 0 0 0-.354-.853z" fill="#000000" class="color000 svgShape"></path></svg></g></svg>