<svg id="SvgjsSvg1081" width="256" height="256" xmlns="http://www.w3.org/2000/svg" version="1.1" xmlns:xlink="http://www.w3.org/1999/xlink" xmlns:svgjs="http://svgjs.com/svgjs"><defs id="SvgjsDefs1082"></defs><g id="SvgjsG1083"><svg xmlns="http://www.w3.org/2000/svg" viewBox="0 0 32 32" width="256" height="256"><path d="M26,4H6A4,4,0,0,0,2,8v3a1,1,0,0,0,1,1H25a1,1,0,0,0,0-2H20.62l2-4H26a2,2,0,0,1,2,2V25a2,2,0,0,1-2,2H6a2,2,0,0,1-2-2V15a1,1,0,0,0-2,0V25a4,4,0,0,0,4,4H26a4,4,0,0,0,4-4V8A4,4,0,0,0,26,4ZM6,6h5.38l-2,4H4V8A2,2,0,0,1,6,6Zm12.38,4H11.62l2-4h6.76Z" fill="#000000" class="color000 svgShape"></path></svg></g></svg>