<svg id="SvgjsSvg1027" width="256" height="256" xmlns="http://www.w3.org/2000/svg" version="1.1" xmlns:xlink="http://www.w3.org/1999/xlink" xmlns:svgjs="http://svgjs.com/svgjs"><defs id="SvgjsDefs1028"></defs><g id="SvgjsG1029"><svg xmlns="http://www.w3.org/2000/svg" viewBox="0 0 32 32" width="256" height="256"><path fill-rule="evenodd" d="M17 7.171a4.656 4.656 0 0 0-2.662.621 4.679 4.679 0 0 0-1.713 6.395l.467.809 4.666 8.105 8.091-4.684.81-.468a4.678 4.678 0 0 0 1.712-6.395 4.652 4.652 0 0 0-6.379-1.71l-.809.468-.466-.81A4.651 4.651 0 0 0 17 7.171zm-5.963 5.286c-.727.343-1.36.9-1.793 1.652l-.408.71-.71-.411a4.072 4.072 0 0 0-5.581 1.494 4.09 4.09 0 0 0 1.5 5.592l.707.41L11.834 26l3.22-5.59-2.83-4.914-.466-.809a5.647 5.647 0 0 1-.72-2.23z" fill="#000000" class="color000 svgShape"></path></svg></g></svg>