<svg id="SvgjsSvg1198" width="256" height="256" xmlns="http://www.w3.org/2000/svg" version="1.1" xmlns:xlink="http://www.w3.org/1999/xlink" xmlns:svgjs="http://svgjs.com/svgjs"><defs id="SvgjsDefs1199"></defs><g id="SvgjsG1200"><svg xmlns="http://www.w3.org/2000/svg" viewBox="0 0 36 36" width="256" height="256"><g color="#000"><path fill="#ffffff" style="isolation:auto;mix-blend-mode:normal" d="M21.22 1028.428c-1.42 1.421-1.787 6.934-1.787 6.934s5.513-.366 6.934-1.787a3.64 3.64 0 0 0-5.147-5.147z" overflow="visible" transform="translate(0 -1016.362)" class="colorfff svgShape"></path><path fill="#dddddd" d="M18.25 1020.863c-6.765 0-12.25 5.484-12.25 12.25 0 6.765 12.25 15.879 12.25 15.879s12.25-9.114 12.25-15.88c0-6.764-5.484-12.25-12.25-12.25zm-5.111 6.5c.931 0 1.863.354 2.574 1.064 1.421 1.422 1.787 6.936 1.787 6.936s-5.512-.366-6.934-1.787a3.641 3.641 0 0 1 0-5.149 3.624 3.624 0 0 1 2.573-1.064zm10.654 0c.931 0 1.864.354 2.574 1.064a3.641 3.641 0 0 1 0 5.149c-1.421 1.421-6.933 1.787-6.933 1.787s.366-5.514 1.787-6.936a3.624 3.624 0 0 1 2.572-1.064z" overflow="visible" style="isolation:auto;mix-blend-mode:normal" transform="translate(0 -1016.362)" class="colorc2e4f8 svgShape"></path><path fill="#ffffff" d="M15.713 1028.428c1.421 1.421 1.787 6.934 1.787 6.934s-5.513-.366-6.934-1.787a3.64 3.64 0 0 1 5.147-5.147z" overflow="visible" style="isolation:auto;mix-blend-mode:normal" transform="translate(0 -1016.362)" class="colorfff svgShape"></path><path fill="#000000" style="line-height:normal;text-indent:0;text-align:start;text-decoration-line:none;text-decoration-style:solid;text-decoration-color:#000;text-transform:none;block-progression:tb;isolation:auto;mix-blend-mode:normal" d="M18.25 1020.362c-7.036 0-12.75 5.715-12.75 12.75 0 3.685 3.174 7.67 6.268 10.826a59.508 59.508 0 0 0 6.183 5.455.5.5 0 0 0 .598 0s3.09-2.298 6.183-5.455c3.095-3.156 6.268-7.141 6.268-10.826 0-7.035-5.714-12.75-12.75-12.75zm0 1c6.495 0 11.75 5.255 11.75 11.75 0 3.081-2.951 7.035-5.982 10.127-2.882 2.94-5.49 4.88-5.768 5.088-.277-.208-2.886-2.148-5.768-5.088-3.03-3.092-5.982-7.046-5.982-10.127 0-6.495 5.255-11.75 11.75-11.75z" font-family="sans-serif" font-weight="400" overflow="visible" transform="translate(0 -1016.362)" class="color249fe6 svgShape"></path><path fill="#000000" style="line-height:normal;text-indent:0;text-align:start;text-decoration-line:none;text-decoration-style:solid;text-decoration-color:#000;text-transform:none;block-progression:tb;isolation:auto;mix-blend-mode:normal" d="M23.793 1026.866c-1.06 0-2.12.403-2.926 1.21-.462.461-.754 1.127-1 1.88-.246.753-.43 1.594-.566 2.387-.275 1.586-.367 2.986-.367 2.986a.5.5 0 0 0 .533.531s1.4-.09 2.986-.365c.793-.137 1.634-.32 2.387-.566.752-.246 1.419-.538 1.88-1a4.146 4.146 0 0 0 0-5.854 4.128 4.128 0 0 0-2.927-1.209zm0 .992c.802 0 1.606.31 2.22.924a3.131 3.131 0 0 1 0 4.44c-.248.248-.803.535-1.484.757-.68.223-1.485.398-2.248.53-1.205.208-1.866.248-2.275.281.033-.409.073-1.072.281-2.277.132-.763.307-1.566.53-2.246.222-.681.509-1.236.757-1.485a3.128 3.128 0 0 1 2.219-.924zm-10.654-.992c-1.06 0-2.12.403-2.926 1.21a4.146 4.146 0 0 0 0 5.853c.462.462 1.128.754 1.88 1 .753.245 1.594.429 2.387.566 1.586.274 2.987.365 2.987.365a.5.5 0 0 0 .531-.531s-.09-1.4-.365-2.986c-.137-.793-.32-1.635-.567-2.387-.245-.753-.538-1.419-1-1.88a4.128 4.128 0 0 0-2.927-1.21zm0 .992c.802 0 1.605.31 2.22.924.249.249.536.804.758 1.484.223.681.398 1.484.53 2.247.208 1.205.248 1.868.28 2.277-.408-.033-1.071-.073-2.277-.281-.762-.132-1.565-.307-2.246-.53-.68-.222-1.235-.509-1.484-.757a3.131 3.131 0 0 1 0-4.44 3.128 3.128 0 0 1 2.219-.924z" font-family="sans-serif" font-weight="400" overflow="visible" transform="translate(0 -1016.362)" class="color249fe6 svgShape"></path></g></svg></g></svg>