<svg id="SvgjsSvg1065" width="256" height="256" xmlns="http://www.w3.org/2000/svg" version="1.1" xmlns:xlink="http://www.w3.org/1999/xlink" xmlns:svgjs="http://svgjs.com/svgjs"><defs id="SvgjsDefs1066"></defs><g id="SvgjsG1067"><svg xmlns="http://www.w3.org/2000/svg" fill-rule="evenodd" stroke-linejoin="round" stroke-miterlimit="2" clip-rule="evenodd" viewBox="0 0 24 24" width="256" height="256"><path d="M17.25 19c0-.414.336-.75.75-.75.414 0 .75.336.75.75l0 3.5c0 .414-.336.75-.75.75-.414 0-.75-.336-.75-.75l0-3.5zM5.25 19c0-.414.336-.75.75-.75.414 0 .75.336.75.75l0 3.5c0 .414-.336.75-.75.75-.414 0-.75-.336-.75-.75l0-3.5zM19.75 19c0-.414.336-.75.75-.75.414 0 .75.336.75.75l0 1.5c0 .414-.336.75-.75.75-.414 0-.75-.336-.75-.75l0-1.5zM2.75 19c0-.414.336-.75.75-.75.414 0 .75.336.75.75l0 1.5c0 .414-.336.75-.75.75-.414 0-.75-.336-.75-.75l0-1.5zM12 .75c1.656 0 3 1.344 3 3 0 1.656-1.344 3-3 3-1.656 0-3-1.344-3-3 0-1.656 1.344-3 3-3zm0 1.5c-.828 0-1.5.672-1.5 1.5 0 .828.672 1.5 1.5 1.5.828 0 1.5-.672 1.5-1.5 0-.828-.672-1.5-1.5-1.5z" fill="#000000" class="color000 svgShape"></path><path d="M12,22.678c-0.398,0.356 -0.923,0.572 -1.498,0.572l-0.004,0c-1.242,0 -2.248,-1.006 -2.248,-2.248l0,-12.191l-4.024,-4.025c-0.878,-0.878 -0.878,-2.301 -0,-3.179l0.002,-0.003c0.878,-0.878 2.302,-0.878 3.18,0l3.903,3.903l1.378,0l3.902,-3.901c0.422,-0.422 0.994,-0.659 1.591,-0.659c0.597,-0 1.169,0.237 1.591,0.659l0.001,0.001c0.878,0.878 0.878,2.301 0,3.179c0,0 -4.024,4.025 -4.024,4.025l-0,12.191c-0,1.242 -1.006,2.248 -2.248,2.248l-0.004,0c-0.575,0 -1.1,-0.216 -1.498,-0.572Zm-0.75,-1.676l-0,-6.002c0,-0.414 0.336,-0.75 0.75,-0.75c0.414,0 0.75,0.336 0.75,0.75l0,6.002c0,0.413 0.335,0.748 0.748,0.748l0.004,-0c0.413,0 0.748,-0.335 0.748,-0.748l-0,-12.502c0,-0.199 0.079,-0.39 0.22,-0.53l4.244,-4.244c0.292,-0.292 0.292,-0.766 -0,-1.058l-0.002,-0.002c-0.14,-0.14 -0.331,-0.219 -0.53,-0.219c-0.199,-0 -0.39,0.079 -0.53,0.219l-4.122,4.122c-0.14,0.14 -0.331,0.219 -0.53,0.219l-2,0c-0.199,0 -0.39,-0.079 -0.53,-0.219l-4.123,-4.123c-0.292,-0.292 -0.766,-0.292 -1.058,-0l-0.003,0.003c-0.292,0.292 -0.292,0.766 0,1.058l4.244,4.244c0.141,0.14 0.22,0.331 0.22,0.53l0,12.502c0,0.413 0.335,0.748 0.748,0.748l0.004,-0c0.413,0 0.748,-0.335 0.748,-0.748Z" fill="#000000" class="color000 svgShape"></path><path d="M15,10.75c0.414,0 0.75,0.336 0.75,0.75c-0,0.414 -0.336,0.75 -0.75,0.75l-6,0c-0.414,0 -0.75,-0.336 -0.75,-0.75c-0,-0.414 0.336,-0.75 0.75,-0.75l6,0Z" fill="#000000" class="color000 svgShape"></path><path d="M15 17.25c-.414 0-.75-.336-.75-.75 0-.414.336-.75.75-.75l2.768 0c.075 0 .146-.034.194-.092.047-.059.066-.136.05-.21l-1.746-8.293c-.085-.406.174-.804.579-.889.406-.085.804.174.889.579l1.746 8.294c.109.517-.021 1.054-.354 1.464-.332.409-.831.647-1.358.647l-2.768 0zM9 15.75c.414 0 .75.336.75.75 0 .414-.336.75-.75.75l-2.768 0c-.527 0-1.026-.238-1.358-.647-.333-.41-.463-.947-.354-1.464l1.746-8.294c.085-.405.483-.664.889-.579.405.085.664.483.579.889l-1.746 8.293c-.016.074.003.151.05.21.048.058.119.092.194.092l2.768 0z" fill="#000000" class="color000 svgShape"></path></svg></g></svg>