<svg id="SvgjsSvg1021" width="256" height="256" xmlns="http://www.w3.org/2000/svg" version="1.1" xmlns:xlink="http://www.w3.org/1999/xlink" xmlns:svgjs="http://svgjs.com/svgjs"><defs id="SvgjsDefs1022"></defs><g id="SvgjsG1023"><svg xmlns="http://www.w3.org/2000/svg" viewBox="0 0 64 64" width="256" height="256"><path fill="#2b4255" d="M55.207 3.57c-.489.015-.965.17-1.375.461l-.814.58a.497.497 0 0 0-.118.698.498.498 0 0 1 .084.373.49.49 0 0 1-.2.324l-.817.578a.525.525 0 0 1-.373.086.493.493 0 0 1-.324-.203.503.503 0 0 0-.698-.117L35.906 16.773l-.004.002H35.9L4.111 39.367a.496.496 0 0 0-.119.697l3.477 4.891a11.465 11.465 0 0 0 2.902 2.848 11.488 11.488 0 0 0 6.467 1.98c2.34 0 4.682-.706 6.666-2.117l22.824-16.22a.5.5 0 0 0 .117-.698L44.13 27.49v-.002l-.002-.002-2.606-3.666 14.266-10.136a.501.501 0 0 0 .117-.698.499.499 0 0 1 .117-.695l.815-.578a.5.5 0 0 1 .697.117.502.502 0 0 0 .697.117l.817-.58a2.481 2.481 0 0 0 1.016-1.62 2.481 2.481 0 0 0-.428-1.864L57.318 4.62a2.484 2.484 0 0 0-2.111-1.05zm.03.998a1.51 1.51 0 0 1 .294.022c.395.066.743.282.975.61l2.314 3.26c.232.327.322.724.256 1.12-.066.395-.281.74-.607.973l-.48.34a1.502 1.502 0 0 0-1.731.003l-.815.579a1.49 1.49 0 0 0-.574 1.634l-13.926 9.899L36.89 17.3l13.925-9.897a1.498 1.498 0 0 0 1.733-.006l.814-.578c.327-.233.544-.576.61-.972.038-.225.027-.45-.035-.662l.476-.34c.244-.174.53-.27.824-.278zm-4.548 5.688a1.499 1.499 0 0 0-1.177 2.367 1.495 1.495 0 0 0 2.092.354 1.501 1.501 0 0 0-.62-2.702 1.493 1.493 0 0 0-.295-.02zm.045.998c.028 0 .056.004.084.008a.493.493 0 0 1 .409.576.496.496 0 0 1-.577.408.496.496 0 0 1-.41-.574.498.498 0 0 1 .205-.324.498.498 0 0 1 .29-.094zm-4.111 1.896a1.502 1.502 0 0 0-1.188 2.37 1.5 1.5 0 0 0 1.225.628c.3 0 .604-.088.867-.275a1.502 1.502 0 0 0-.904-2.723zm.035 1a.502.502 0 0 1 .494.582.499.499 0 1 1-.494-.582zm-4.111 1.897a1.503 1.503 0 0 0-1.188 2.37 1.505 1.505 0 0 0 2.092.353 1.502 1.502 0 0 0-.904-2.723zm.035 1a.498.498 0 0 1 .494.584.5.5 0 1 1-.494-.584zm-6.51.834 4.346 6.113 2.605 3.666-8.05 5.725a.5.5 0 1 0 .58.813l8.05-5.723 1.739 2.447-22.416 15.932c-3.56 2.53-8.381 2.579-11.992.123a10.466 10.466 0 0 1-2.65-2.602l-3.186-4.482L36.072 17.88z" class="color2b4255 svgShape"></path><path fill="#f05542" d="m43.7 32.09-.003.002H41.5c-.752 0-1.499.248-2.1.699l-.289.217a2.483 2.483 0 0 1-1.707.49l-3.783-.314a3.488 3.488 0 0 0-2.297.62l-2.82 1.973a4.48 4.48 0 0 1-2.58.815h-.67a5.527 5.527 0 0 0-3.438 1.205l-1.505 1.205a4.485 4.485 0 0 1-4.235.754l-1.33-.444a5.51 5.51 0 0 0-4.414.415l-4.146 2.308a.488.488 0 0 0-.19.205l-.31.207 1.783 2.508a11.465 11.465 0 0 0 2.902 2.848c.021.014.044.025.065.039.007.006.01.016.02.021A3.502 3.502 0 0 1 12 50.768v6.824c0 1.103.897 2 2 2s2-.897 2-2v-5a1.001 1.001 0 0 1 2 0v2c0 1.103.897 2 2 2s2-.897 2-2v-5.15c0-.472.216-.907.592-1.192.003-.003.004-.007.008-.01.307-.178.61-.365.904-.574l20.762-14.754-.07-.103a.485.485 0 0 0 .054-.217.5.5 0 0 0-.5-.5h-.049l-.002-.002zm-2.2 1.002h.79L22.925 46.854c-3.56 2.53-8.381 2.579-11.992.123a10.466 10.466 0 0 1-2.65-2.602L7.08 42.682l3.736-2.082a4.51 4.51 0 0 1 3.614-.336l1.33.441a5.474 5.474 0 0 0 5.174-.922l1.505-1.205a4.528 4.528 0 0 1 2.813-.986h.67a5.482 5.482 0 0 0 3.154-.994l2.82-1.975a2.474 2.474 0 0 1 1.641-.443l3.783.314a3.482 3.482 0 0 0 2.39-.687l.29-.215c.43-.322.963-.5 1.5-.5zM21.053 48.988c-.027.15-.053.3-.053.455v5.149a1.001 1.001 0 0 1-2 0v-2c0-1.103-.897-2-2-2s-2 .897-2 2v5a1.001 1.001 0 0 1-2 0v-6.824c0-.622-.134-1.224-.373-1.778a11.57 11.57 0 0 0 8.426-.002z" class="colorf05542 svgShape"></path></svg></g></svg>