<svg id="SvgjsSvg1130" width="256" height="256" xmlns="http://www.w3.org/2000/svg" version="1.1" xmlns:xlink="http://www.w3.org/1999/xlink" xmlns:svgjs="http://svgjs.com/svgjs"><defs id="SvgjsDefs1131"></defs><g id="SvgjsG1132"><svg xmlns="http://www.w3.org/2000/svg" enable-background="new 0 0 64 64" viewBox="0 0 64 64" width="256" height="256"><g id="Layer_1"><path fill="#eaf6f7" d="M21,13.1h12.7c4.2,0,7.6,3.4,7.6,7.6v25.9c0,4.2-3.4,7.6-7.6,7.6H21c-4.2,0-7.6-3.4-7.6-7.6V20.7    C13.4,16.5,16.8,13.1,21,13.1z" class="coloreaf6f7 svgShape"></path><line x1="30.2" x2="30.2" y1="27" y2="40.4" fill="none" stroke="#3b4752" stroke-linecap="round" stroke-linejoin="round" stroke-miterlimit="10" stroke-width="2" class="colorStroke3b4752 svgStroke"></line><line x1="24.5" x2="24.5" y1="44.8" y2="22.6" fill="none" stroke="#3b4752" stroke-linecap="round" stroke-linejoin="round" stroke-miterlimit="10" stroke-width="2" class="colorStroke3b4752 svgStroke"></line><line x1="24.5" x2="30.2" y1="17.7" y2="17.7" fill="none" stroke="#3b4752" stroke-linecap="round" stroke-linejoin="round" stroke-miterlimit="10" stroke-width="2" class="colorStroke3b4752 svgStroke"></line><path fill="none" stroke="#3b4752" stroke-linecap="round" stroke-linejoin="round" stroke-miterlimit="10" stroke-width="2" d="M21,13.1h12.7c4.2,0,7.6,3.4,7.6,7.6v25.9c0,4.2-3.4,7.6-7.6,7.6H21c-4.2,0-7.6-3.4-7.6-7.6V20.7    C13.4,16.5,16.8,13.1,21,13.1z" class="colorStroke3b4752 svgStroke"></path><path fill="#d1dce0" d="M50.1,42.5l-8.9-24.4c-1.2-3.2-4.2-5.1-7.4-5c4.1,0.1,7.4,3.4,7.4,7.6v25.9c0,4.2-3.4,7.6-7.6,7.6h-8.4    c2,2.4,5.3,3.4,8.4,2.3l11.9-4.3C49.5,50.8,51.6,46.4,50.1,42.5z" class="colord1dce0 svgShape"></path><path fill="none" stroke="#3b4752" stroke-linecap="round" stroke-linejoin="round" stroke-miterlimit="10" stroke-width="2" d="M50.1,42.5l-8.9-24.4c-1.2-3.2-4.2-5.1-7.4-5c4.1,0.1,7.4,3.4,7.4,7.6v25.9c0,4.2-3.4,7.6-7.6,7.6h-8.4    c2,2.4,5.3,3.4,8.4,2.3l11.9-4.3C49.5,50.8,51.6,46.4,50.1,42.5z" class="colorStroke3b4752 svgStroke"></path><line x1="32.3" x2="38.9" y1="13.1" y2="7" fill="none" stroke="#3b4752" stroke-linecap="round" stroke-linejoin="round" stroke-miterlimit="10" stroke-width="2" class="colorStroke3b4752 svgStroke"></line><line x1="15.7" x2="27.3" y1="7" y2="17.7" fill="none" stroke="#3b4752" stroke-linecap="round" stroke-linejoin="round" stroke-miterlimit="10" stroke-width="2" class="colorStroke3b4752 svgStroke"></line></g></svg></g></svg>