<svg width="16" height="14" viewBox="0 0 16 14" fill="none" xmlns="http://www.w3.org/2000/svg">
<path fill-rule="evenodd" clip-rule="evenodd" d="M8.17668 9.32091C7.00977 9.32091 6.06324 8.37492 6.06324 7.20747C6.06324 6.61597 6.30539 6.08273 6.69698 5.69858C6.84237 5.55595 6.84461 5.32246 6.70198 5.17707C6.55935 5.03168 6.32586 5.02944 6.18047 5.17207C5.65347 5.68907 5.32568 6.40969 5.32568 7.20747C5.32568 8.78239 6.60255 10.0585 8.17668 10.0585C8.97373 10.0585 9.69504 9.73072 10.2121 9.20368C10.3547 9.05829 10.3525 8.8248 10.2071 8.68217C10.0617 8.53954 9.8282 8.54178 9.68557 8.68717C9.30145 9.07872 8.76756 9.32091 8.17668 9.32091Z" fill="#677185"/>
<path fill-rule="evenodd" clip-rule="evenodd" d="M2.32967 10.2607C3.51492 11.7162 5.39681 13.2113 8.11298 13.2113C9.95512 13.2113 11.4215 12.5217 12.5461 11.622C12.7034 11.4961 12.7282 11.2675 12.6014 11.1113C12.4746 10.9551 12.2442 10.9306 12.0869 11.0564C11.0655 11.8736 9.75659 12.4849 8.11298 12.4849C5.69966 12.4849 4.00633 11.1642 2.89874 9.80407C2.34575 9.12498 1.94612 8.4441 1.6848 7.93239C1.55436 7.67697 1.45898 7.46487 1.39663 7.3178C1.38112 7.28121 1.36766 7.24867 1.35623 7.22051C1.38414 7.15529 1.42341 7.06646 1.47426 6.95818C1.59103 6.70956 1.76839 6.35938 2.00895 5.95773C2.49163 5.15178 3.22075 4.152 4.21354 3.34634C4.36999 3.21938 4.39313 2.99058 4.26524 2.83528C4.13734 2.67999 3.90685 2.65702 3.75041 2.78397C2.66905 3.66151 1.88846 4.73751 1.37997 5.58653C1.12493 6.01236 0.936345 6.38448 0.811052 6.65127C0.748366 6.78474 0.701412 6.8921 0.669809 6.96691C0.654005 7.00433 0.642031 7.03363 0.63384 7.05401C0.629744 7.0642 0.626594 7.07217 0.624382 7.07781L0.621768 7.08451L0.620988 7.08653L0.620729 7.0872L0.620632 7.08745C0.620593 7.08756 0.620557 7.08765 0.96255 7.2167C0.617896 7.33858 0.617952 7.33874 0.618016 7.33891L0.618182 7.33938L0.618656 7.34069L0.620167 7.34483C0.621426 7.34827 0.623189 7.35305 0.62546 7.35913C0.630001 7.37129 0.636575 7.38864 0.645217 7.41084C0.662498 7.45524 0.68806 7.51907 0.722179 7.59955C0.790391 7.76045 0.892963 7.9883 1.03214 8.26082C1.31004 8.80499 1.73624 9.53195 2.32967 10.2607ZM0.96255 7.2167L0.617896 7.33858C0.588719 7.25728 0.589663 7.16832 0.620557 7.08765L0.96255 7.2167Z" fill="#677185"/>
<path fill-rule="evenodd" clip-rule="evenodd" d="M13.0166 10.4924C13.166 10.6246 13.3953 10.6121 13.529 10.4644C14.2308 9.68893 14.7344 8.88144 15.0623 8.26948C15.2266 7.96291 15.3476 7.70387 15.428 7.52026C15.4682 7.42842 15.4983 7.35534 15.5186 7.30448C15.5288 7.27905 15.5365 7.25917 15.5418 7.24526C15.5445 7.23831 15.5465 7.23285 15.548 7.22895L15.5498 7.22425L15.5503 7.22278L15.5505 7.22227L15.5506 7.22208C15.5506 7.22199 15.5506 7.22191 15.2095 7.09961C15.5487 6.97216 15.5486 6.97201 15.5486 6.97184L15.5479 6.97013L15.5463 6.96607C15.545 6.96268 15.5431 6.95797 15.5407 6.95195C15.536 6.93993 15.529 6.92273 15.5199 6.90069C15.5017 6.85663 15.4748 6.79321 15.439 6.71319C15.3675 6.5532 15.2605 6.32653 15.1165 6.05535C14.829 5.51383 14.3919 4.79037 13.7936 4.06512C12.6007 2.61895 10.7308 1.12556 8.10162 1.12556C6.91583 1.12556 5.8805 1.43081 4.99226 1.90013C4.8155 1.99352 4.74875 2.21098 4.84316 2.38584C4.93757 2.5607 5.1574 2.62674 5.33416 2.53334C6.12821 2.11379 7.04699 1.84344 8.10162 1.84344C10.4243 1.84344 12.1084 3.15761 13.2314 4.51899C13.7911 5.19751 14.2025 5.87783 14.474 6.38915C14.6095 6.64438 14.7096 6.85639 14.7753 7.00348C14.792 7.04072 14.8064 7.07377 14.8186 7.10229C14.8034 7.13919 14.7845 7.18366 14.7621 7.23494C14.6882 7.40363 14.5754 7.64547 14.4211 7.93327C14.1121 8.51005 13.6403 9.26525 12.9883 9.98557C12.8547 10.1333 12.8673 10.3602 13.0166 10.4924ZM15.2095 7.09961L15.5487 6.97216C15.5795 7.0525 15.5802 7.14112 15.5506 7.22191L15.2095 7.09961Z" fill="#677185"/>
<path fill-rule="evenodd" clip-rule="evenodd" d="M10.406 7.95137C10.5946 7.98557 10.7733 7.84859 10.8051 7.64542C10.8294 7.48964 10.8433 7.32848 10.8433 7.1623C10.8433 5.56998 9.64463 4.27835 8.1653 4.27835C8.01099 4.27835 7.86134 4.29325 7.71669 4.31947C7.52803 4.35367 7.40084 4.54609 7.43259 4.74926C7.46435 4.95242 7.64303 5.0894 7.83168 5.05521C7.94147 5.0353 8.05257 5.02443 8.1653 5.02443C9.26189 5.02443 10.1505 5.9819 10.1505 7.1623C10.1505 7.2837 10.1404 7.40335 10.1219 7.52158C10.0901 7.72475 10.2173 7.91717 10.406 7.95137Z" fill="#677185"/>
<path fill-rule="evenodd" clip-rule="evenodd" d="M5.32568 7.20747C5.32568 8.78233 6.60182 10.0585 8.17668 10.0585C8.97446 10.0585 9.69507 9.73068 10.2121 9.20368C10.3547 9.05829 10.3525 8.8248 10.2071 8.68217C10.0617 8.53954 9.8282 8.54178 9.68557 8.68717C9.30141 9.07876 8.76818 9.32091 8.17668 9.32091C7.00916 9.32091 6.06324 8.37499 6.06324 7.20747C6.06324 6.61658 6.30543 6.0827 6.69698 5.69858C6.84237 5.55595 6.84461 5.32246 6.70198 5.17707C6.55934 5.03168 6.32586 5.02944 6.18047 5.17207C5.65343 5.68911 5.32568 6.41041 5.32568 7.20747Z" fill="#677185"/>
<path fill-rule="evenodd" clip-rule="evenodd" d="M14.4161 13.3688C14.5564 13.2285 14.5564 13.0011 14.4161 12.8609L2.52325 0.968013C2.383 0.827759 2.1556 0.827759 2.01535 0.968013C1.87509 1.10827 1.87509 1.33566 2.01535 1.47592L13.9082 13.3688C14.0485 13.509 14.2759 13.509 14.4161 13.3688Z" fill="#677185"/>
</svg>
