<svg id="SvgjsSvg1238" width="256" height="256" xmlns="http://www.w3.org/2000/svg" version="1.1" xmlns:xlink="http://www.w3.org/1999/xlink" xmlns:svgjs="http://svgjs.com/svgjs"><defs id="SvgjsDefs1239"></defs><g id="SvgjsG1240"><svg xmlns="http://www.w3.org/2000/svg" enable-background="new 0 0 47.5 47.5" viewBox="0 0 47.5 47.5" width="256" height="256"><defs><clipPath id="a"><path d="M0 38h38V0H0v38Z" fill="#000000" class="color000 svgShape"></path></clipPath></defs><g clip-path="url(#a)" transform="matrix(1.25 0 0 -1.25 0 47.5)"><path fill="#0f7dc2" d="M0 0a4 4 0 0 0-4-4h-28a4 4 0 0 0-4 4v28a4 4 0 0 0 4 4h28a4 4 0 0 0 4-4V0Z" transform="translate(37 5)" class="color3b88c3 svgShape"></path><path fill="#f5f8fa" d="M0 0h-1.958C-3.55 0-4.213 1.162-4.213 2.289c0 1.16.829 2.288 2.255 2.288h4.71c1.426 0 2.223-1.028 2.223-2.354v-18.875c0-1.658-1.061-2.586-2.488-2.586-1.425 0-2.487.928-2.487 2.586V0Z" transform="translate(8.213 26.025)" class="colorf5f8fa svgShape"></path><path fill="#f5f8fa" d="M0 0c0 2.521-.232 7.696-3.616 7.696-3.383 0-3.615-5.175-3.615-7.696 0-2.355.232-7.695 3.615-7.695C-.232-7.695 0-2.355 0 0m-12.406 0c0 5.407 2.09 12.206 8.79 12.206 6.7 0 8.791-6.799 8.791-12.206 0-5.406-2.091-12.207-8.791-12.207S-12.406-5.406-12.406 0" transform="translate(28.586 18.794)" class="colorf5f8fa svgShape"></path></g></svg></g></svg>