<svg id="SvgjsSvg1228" width="256" height="256" xmlns="http://www.w3.org/2000/svg" version="1.1" xmlns:xlink="http://www.w3.org/1999/xlink" xmlns:svgjs="http://svgjs.com/svgjs"><defs id="SvgjsDefs1229"></defs><g id="SvgjsG1230"><svg xmlns="http://www.w3.org/2000/svg" viewBox="0 0 47.5 47.5" width="256" height="256"><defs><clipPath id="a"><path d="M0 38h38V0H0v38Z" fill="#000000" class="color000 svgShape"></path></clipPath></defs><g clip-path="url(#a)" transform="matrix(1.25 0 0 -1.25 0 47.5)"><path fill="#0c9447" d="M37 5a4 4 0 0 0-4-4H5a4 4 0 0 0-4 4v28a4 4 0 0 0 4 4h28a4 4 0 0 0 4-4V5Z" class="color3b88c3 svgShape"></path><path fill="#ffffff" d="M13.793 27.844c0 1.55.992 2.418 2.325 2.418 1.333 0 2.325-.868 2.325-2.418V12.28h5.52c1.58 0 2.263-1.179 2.233-2.233C26.133 9.024 25.327 8 23.963 8h-7.752c-1.519 0-2.418.992-2.418 2.543v17.301Z" class="colorfff svgShape"></path></g></svg></g></svg>